<?xml version="1.0" encoding="utf-8"?>
<!DOCTYPE score-partwise PUBLIC "-//Recordare//DTD MusicXML 2.0 Partwise//EN"
                                "http://www.musicxml.org/dtds/partwise.dtd">
<score-partwise version="3.0">
  <movement-title>28. Nun komm, der Heiden Heiland.</movement-title>
  <identification>
    <encoding>
      <software>python-ly 0.9.5</software>
      <encoding-date>2019-05-18</encoding-date>
    </encoding>
    <creator type="composer">arr. and harm. J.S. Bach (1685-1750)</creator>
    <subtitle>371 Four-Part Chorales</subtitle>
    <mutopiacomposer>BachJS</mutopiacomposer>
    <mutopiainstrument>Voice (SATB)</mutopiainstrument>
    <source>Kalmus K03047</source>
    <style>Baroque</style>
    <maintainer>Ricky Marshall</maintainer>
    <maintainerEmail>rickythesk8r@verizon.net</maintainerEmail>
    <moreInfo>Melody from Erfurt Enchiridia, 1524</moreInfo>
    <footer>Mutopia-2007/05/15-982</footer>
    <tagline>  Sheet music from http://www.MutopiaProject.org www.  MutopiaProject  .org  •  Free to download, with the freedom to distribute, modify and perform. Typeset using http://www.LilyPond.org www.  LilyPond  .org by   .  Reference:  This sheet music has been placed in the public domain by the typesetter, for details see:  http://creativecommons.org/licenses/publicdomain http://creativecommons.org/licenses/publicdomain</tagline>
    <rights>Public Domain</rights>
  </identification>
  <part-list>
    <score-part id="P1">
      <part-name />
    </score-part>
  </part-list>
  <part id="P1">
    <measure number="1">
      <attributes>
        <divisions>8</divisions>
        <time symbol="common">
          <beats>4</beats>
          <beat-type>4</beat-type>
        </time>
        <staves>2</staves>
        <clef>
          <sign>G</sign>
          <line>2</line>
        </clef>
      </attributes>
      <note>
        <pitch>
          <step>D</step>
          <octave>4</octave>
        </pitch>
        <duration>8</duration>
        <voice>7</voice>
        <type>quarter</type>
        <staff>2</staff>
      </note>
      <note>
        <pitch>
          <step>C</step>
          <alter>1</alter>
          <octave>4</octave>
        </pitch>
        <duration>4</duration>
        <voice>7</voice>
        <type>eighth</type>
        <accidental>sharp</accidental>
        <staff>2</staff>
      </note>
      <note>
        <pitch>
          <step>B</step>
          <octave>3</octave>
        </pitch>
        <duration>4</duration>
        <voice>7</voice>
        <type>eighth</type>
        <staff>2</staff>
      </note>
      <note>
        <pitch>
          <step>C</step>
          <alter>1</alter>
          <octave>4</octave>
        </pitch>
        <duration>8</duration>
        <voice>7</voice>
        <type>quarter</type>
        <accidental>sharp</accidental>
        <staff>2</staff>
      </note>
      <note>
        <pitch>
          <step>B</step>
          <octave>3</octave>
        </pitch>
        <duration>8</duration>
        <voice>7</voice>
        <type>quarter</type>
        <staff>2</staff>
      </note>
      <backup>
        <duration>32</duration>
      </backup>
      <note>
        <pitch>
          <step>B</step>
          <octave>3</octave>
        </pitch>
        <duration>4</duration>
        <voice>8</voice>
        <type>eighth</type>
        <staff>2</staff>
      </note>
      <note>
        <pitch>
          <step>A</step>
          <octave>3</octave>
        </pitch>
        <duration>4</duration>
        <voice>8</voice>
        <type>eighth</type>
        <staff>2</staff>
      </note>
      <note>
        <pitch>
          <step>G</step>
          <octave>3</octave>
        </pitch>
        <duration>8</duration>
        <voice>8</voice>
        <type>quarter</type>
        <staff>2</staff>
      </note>
      <note>
        <pitch>
          <step>F</step>
          <alter>1</alter>
          <octave>3</octave>
        </pitch>
        <duration>4</duration>
        <voice>8</voice>
        <type>eighth</type>
        <accidental>sharp</accidental>
        <staff>2</staff>
      </note>
      <note>
        <pitch>
          <step>E</step>
          <octave>3</octave>
        </pitch>
        <duration>4</duration>
        <voice>8</voice>
        <type>eighth</type>
        <staff>2</staff>
      </note>
      <note>
        <pitch>
          <step>D</step>
          <octave>3</octave>
        </pitch>
        <duration>4</duration>
        <voice>8</voice>
        <type>eighth</type>
        <staff>2</staff>
      </note>
      <note>
        <pitch>
          <step>B</step>
          <octave>2</octave>
        </pitch>
        <duration>4</duration>
        <voice>8</voice>
        <type>eighth</type>
        <staff>2</staff>
      </note>
    </measure>
    <measure number="2">
      <note>
        <pitch>
          <step>B</step>
          <octave>3</octave>
        </pitch>
        <duration>12</duration>
        <voice>7</voice>
        <type>quarter</type>
        <dot />
        <staff>2</staff>
      </note>
      <note>
        <pitch>
          <step>A</step>
          <alter>1</alter>
          <octave>3</octave>
        </pitch>
        <duration>4</duration>
        <voice>7</voice>
        <type>eighth</type>
        <accidental>sharp</accidental>
        <staff>2</staff>
      </note>
      <note>
        <pitch>
          <step>F</step>
          <alter>1</alter>
          <octave>3</octave>
        </pitch>
        <duration>16</duration>
        <voice>7</voice>
        <type>half</type>
        <accidental>sharp</accidental>
        <staff>2</staff>
      </note>
      <backup>
        <duration>32</duration>
      </backup>
      <note>
        <pitch>
          <step>E</step>
          <octave>3</octave>
        </pitch>
        <duration>4</duration>
        <voice>8</voice>
        <type>eighth</type>
        <staff>2</staff>
      </note>
      <note>
        <pitch>
          <step>D</step>
          <octave>3</octave>
        </pitch>
        <duration>4</duration>
        <voice>8</voice>
        <type>eighth</type>
        <staff>2</staff>
      </note>
      <note>
        <pitch>
          <step>E</step>
          <octave>3</octave>
        </pitch>
        <duration>4</duration>
        <voice>8</voice>
        <type>eighth</type>
        <staff>2</staff>
      </note>
      <note>
        <pitch>
          <step>F</step>
          <alter>1</alter>
          <octave>3</octave>
        </pitch>
        <duration>4</duration>
        <voice>8</voice>
        <type>eighth</type>
        <accidental>sharp</accidental>
        <staff>2</staff>
      </note>
      <note>
        <pitch>
          <step>B</step>
          <octave>2</octave>
        </pitch>
        <duration>16</duration>
        <voice>8</voice>
        <type>half</type>
        <staff>2</staff>
      </note>
    </measure>
    <measure number="3">
      <note>
        <pitch>
          <step>D</step>
          <octave>4</octave>
        </pitch>
        <duration>4</duration>
        <voice>7</voice>
        <type>eighth</type>
        <staff>2</staff>
      </note>
      <note>
        <pitch>
          <step>C</step>
          <alter>1</alter>
          <octave>4</octave>
        </pitch>
        <duration>4</duration>
        <voice>7</voice>
        <type>eighth</type>
        <accidental>sharp</accidental>
        <staff>2</staff>
      </note>
      <note>
        <pitch>
          <step>B</step>
          <octave>3</octave>
        </pitch>
        <duration>8</duration>
        <voice>7</voice>
        <type>quarter</type>
        <staff>2</staff>
      </note>
      <note>
        <pitch>
          <step>C</step>
          <alter>1</alter>
          <octave>4</octave>
        </pitch>
        <duration>8</duration>
        <voice>7</voice>
        <type>quarter</type>
        <accidental>sharp</accidental>
        <staff>2</staff>
      </note>
      <note>
        <pitch>
          <step>D</step>
          <octave>4</octave>
        </pitch>
        <duration>8</duration>
        <voice>7</voice>
        <type>quarter</type>
        <staff>2</staff>
      </note>
      <backup>
        <duration>32</duration>
      </backup>
      <note>
        <pitch>
          <step>B</step>
          <octave>2</octave>
        </pitch>
        <duration>8</duration>
        <voice>8</voice>
        <type>quarter</type>
        <staff>2</staff>
      </note>
      <note>
        <pitch>
          <step>B</step>
          <octave>3</octave>
        </pitch>
        <duration>8</duration>
        <voice>8</voice>
        <type>quarter</type>
        <staff>2</staff>
      </note>
      <note>
        <pitch>
          <step>A</step>
          <octave>3</octave>
        </pitch>
        <duration>4</duration>
        <voice>8</voice>
        <type>eighth</type>
        <staff>2</staff>
      </note>
      <note>
        <pitch>
          <step>G</step>
          <octave>3</octave>
        </pitch>
        <duration>4</duration>
        <voice>8</voice>
        <type>eighth</type>
        <staff>2</staff>
      </note>
      <note>
        <pitch>
          <step>F</step>
          <alter>1</alter>
          <octave>3</octave>
        </pitch>
        <duration>8</duration>
        <voice>8</voice>
        <type>quarter</type>
        <accidental>sharp</accidental>
        <staff>2</staff>
      </note>
    </measure>
    <measure number="4">
      <note>
        <pitch>
          <step>G</step>
          <octave>3</octave>
        </pitch>
        <duration>8</duration>
        <voice>7</voice>
        <type>quarter</type>
        <staff>2</staff>
      </note>
      <note>
        <pitch>
          <step>A</step>
          <octave>3</octave>
        </pitch>
        <duration>4</duration>
        <voice>7</voice>
        <type>eighth</type>
        <staff>2</staff>
      </note>
      <note>
        <pitch>
          <step>B</step>
          <octave>3</octave>
        </pitch>
        <duration>2</duration>
        <voice>7</voice>
        <type>16th</type>
        <staff>2</staff>
      </note>
      <note>
        <pitch>
          <step>C</step>
          <octave>4</octave>
        </pitch>
        <duration>2</duration>
        <voice>7</voice>
        <type>16th</type>
        <staff>2</staff>
      </note>
      <note>
        <pitch>
          <step>B</step>
          <octave>3</octave>
        </pitch>
        <duration>16</duration>
        <voice>7</voice>
        <type>half</type>
        <staff>2</staff>
      </note>
      <backup>
        <duration>32</duration>
      </backup>
      <note>
        <pitch>
          <step>E</step>
          <octave>3</octave>
        </pitch>
        <duration>8</duration>
        <voice>8</voice>
        <type>quarter</type>
        <staff>2</staff>
      </note>
      <note>
        <pitch>
          <step>D</step>
          <octave>3</octave>
        </pitch>
        <duration>8</duration>
        <voice>8</voice>
        <type>quarter</type>
        <staff>2</staff>
      </note>
      <note>
        <pitch>
          <step>G</step>
          <octave>3</octave>
        </pitch>
        <duration>16</duration>
        <voice>8</voice>
        <type>half</type>
        <staff>2</staff>
        <notations>
          <fermata />
        </notations>
      </note>
    </measure>
    <measure number="5">
      <note>
        <pitch>
          <step>A</step>
          <octave>3</octave>
        </pitch>
        <duration>8</duration>
        <voice>7</voice>
        <type>quarter</type>
        <staff>2</staff>
      </note>
      <note>
        <pitch>
          <step>E</step>
          <octave>4</octave>
        </pitch>
        <duration>8</duration>
        <voice>7</voice>
        <type>quarter</type>
        <staff>2</staff>
      </note>
      <note>
        <pitch>
          <step>D</step>
          <octave>4</octave>
        </pitch>
        <duration>4</duration>
        <voice>7</voice>
        <type>eighth</type>
        <staff>2</staff>
      </note>
      <note>
        <pitch>
          <step>C</step>
          <alter>1</alter>
          <octave>4</octave>
        </pitch>
        <duration>4</duration>
        <voice>7</voice>
        <type>eighth</type>
        <accidental>sharp</accidental>
        <staff>2</staff>
      </note>
      <note>
        <pitch>
          <step>B</step>
          <octave>3</octave>
        </pitch>
        <duration>8</duration>
        <voice>7</voice>
        <type>quarter</type>
        <staff>2</staff>
      </note>
      <backup>
        <duration>32</duration>
      </backup>
      <note>
        <pitch>
          <step>F</step>
          <alter>1</alter>
          <octave>3</octave>
        </pitch>
        <duration>4</duration>
        <voice>8</voice>
        <type>eighth</type>
        <accidental>sharp</accidental>
        <staff>2</staff>
      </note>
      <note>
        <pitch>
          <step>E</step>
          <octave>3</octave>
        </pitch>
        <duration>4</duration>
        <voice>8</voice>
        <type>eighth</type>
        <staff>2</staff>
      </note>
      <note>
        <pitch>
          <step>D</step>
          <octave>3</octave>
        </pitch>
        <duration>4</duration>
        <voice>8</voice>
        <type>eighth</type>
        <staff>2</staff>
      </note>
      <note>
        <pitch>
          <step>C</step>
          <alter>1</alter>
          <octave>3</octave>
        </pitch>
        <duration>4</duration>
        <voice>8</voice>
        <type>eighth</type>
        <accidental>sharp</accidental>
        <staff>2</staff>
      </note>
      <note>
        <pitch>
          <step>D</step>
          <octave>3</octave>
        </pitch>
        <duration>8</duration>
        <voice>8</voice>
        <type>quarter</type>
        <staff>2</staff>
      </note>
      <note>
        <pitch>
          <step>G</step>
          <octave>3</octave>
        </pitch>
        <duration>4</duration>
        <voice>8</voice>
        <type>eighth</type>
        <staff>2</staff>
      </note>
      <note>
        <pitch>
          <step>F</step>
          <alter>1</alter>
          <octave>3</octave>
        </pitch>
        <duration>4</duration>
        <voice>8</voice>
        <type>eighth</type>
        <accidental>sharp</accidental>
        <staff>2</staff>
      </note>
    </measure>
    <measure number="6">
      <note>
        <pitch>
          <step>G</step>
          <octave>4</octave>
        </pitch>
        <duration>8</duration>
        <voice>7</voice>
        <type>quarter</type>
        <staff>2</staff>
      </note>
      <note>
        <pitch>
          <step>C</step>
          <alter>1</alter>
          <octave>4</octave>
        </pitch>
        <duration>4</duration>
        <voice>7</voice>
        <type>eighth</type>
        <accidental>sharp</accidental>
        <staff>2</staff>
      </note>
      <note>
        <pitch>
          <step>F</step>
          <alter>1</alter>
          <octave>4</octave>
        </pitch>
        <duration>4</duration>
        <voice>7</voice>
        <type>eighth</type>
        <accidental>sharp</accidental>
        <staff>2</staff>
      </note>
      <note>
        <pitch>
          <step>D</step>
          <octave>4</octave>
        </pitch>
        <duration>16</duration>
        <voice>7</voice>
        <type>half</type>
        <staff>2</staff>
      </note>
      <backup>
        <duration>32</duration>
      </backup>
      <note>
        <pitch>
          <step>E</step>
          <octave>3</octave>
        </pitch>
        <duration>8</duration>
        <voice>8</voice>
        <type>quarter</type>
        <staff>2</staff>
      </note>
      <note>
        <pitch>
          <step>F</step>
          <alter>1</alter>
          <octave>3</octave>
        </pitch>
        <duration>8</duration>
        <voice>8</voice>
        <type>quarter</type>
        <accidental>sharp</accidental>
        <staff>2</staff>
      </note>
      <note>
        <pitch>
          <step>B</step>
          <octave>2</octave>
        </pitch>
        <duration>16</duration>
        <voice>8</voice>
        <type>half</type>
        <staff>2</staff>
        <notations>
          <fermata />
        </notations>
      </note>
    </measure>
    <measure number="7">
      <note>
        <pitch>
          <step>D</step>
          <octave>4</octave>
        </pitch>
        <duration>8</duration>
        <voice>7</voice>
        <type>quarter</type>
        <staff>2</staff>
      </note>
      <note>
        <pitch>
          <step>C</step>
          <alter>1</alter>
          <octave>4</octave>
        </pitch>
        <duration>4</duration>
        <voice>7</voice>
        <type>eighth</type>
        <accidental>sharp</accidental>
        <staff>2</staff>
      </note>
      <note>
        <pitch>
          <step>B</step>
          <octave>3</octave>
        </pitch>
        <duration>4</duration>
        <voice>7</voice>
        <type>eighth</type>
        <staff>2</staff>
      </note>
      <note>
        <pitch>
          <step>C</step>
          <alter>1</alter>
          <octave>4</octave>
        </pitch>
        <duration>8</duration>
        <voice>7</voice>
        <type>quarter</type>
        <accidental>sharp</accidental>
        <staff>2</staff>
      </note>
      <note>
        <pitch>
          <step>F</step>
          <alter>1</alter>
          <octave>4</octave>
        </pitch>
        <duration>8</duration>
        <voice>7</voice>
        <type>quarter</type>
        <accidental>sharp</accidental>
        <staff>2</staff>
      </note>
      <backup>
        <duration>32</duration>
      </backup>
      <note>
        <pitch>
          <step>B</step>
          <octave>3</octave>
        </pitch>
        <duration>4</duration>
        <voice>8</voice>
        <type>eighth</type>
        <staff>2</staff>
      </note>
      <note>
        <pitch>
          <step>A</step>
          <octave>3</octave>
        </pitch>
        <duration>4</duration>
        <voice>8</voice>
        <type>eighth</type>
        <staff>2</staff>
      </note>
      <note>
        <pitch>
          <step>G</step>
          <alter>1</alter>
          <octave>3</octave>
        </pitch>
        <duration>8</duration>
        <voice>8</voice>
        <type>quarter</type>
        <accidental>sharp</accidental>
        <staff>2</staff>
      </note>
      <note>
        <pitch>
          <step>F</step>
          <alter>1</alter>
          <octave>3</octave>
        </pitch>
        <duration>4</duration>
        <voice>8</voice>
        <type>eighth</type>
        <accidental>sharp</accidental>
        <staff>2</staff>
      </note>
      <note>
        <pitch>
          <step>E</step>
          <octave>3</octave>
        </pitch>
        <duration>4</duration>
        <voice>8</voice>
        <type>eighth</type>
        <staff>2</staff>
      </note>
      <note>
        <pitch>
          <step>F</step>
          <alter>1</alter>
          <octave>3</octave>
        </pitch>
        <duration>4</duration>
        <voice>8</voice>
        <type>eighth</type>
        <accidental>sharp</accidental>
        <staff>2</staff>
      </note>
      <note>
        <pitch>
          <step>G</step>
          <alter>1</alter>
          <octave>3</octave>
        </pitch>
        <duration>4</duration>
        <voice>8</voice>
        <type>eighth</type>
        <accidental>sharp</accidental>
        <staff>2</staff>
      </note>
    </measure>
    <measure number="8">
      <note>
        <pitch>
          <step>E</step>
          <octave>4</octave>
        </pitch>
        <duration>4</duration>
        <voice>7</voice>
        <type>eighth</type>
        <staff>2</staff>
      </note>
      <note>
        <pitch>
          <step>D</step>
          <octave>4</octave>
        </pitch>
        <duration>4</duration>
        <voice>7</voice>
        <type>eighth</type>
        <staff>2</staff>
      </note>
      <note>
        <pitch>
          <step>C</step>
          <alter>1</alter>
          <octave>4</octave>
        </pitch>
        <duration>2</duration>
        <voice>7</voice>
        <type>16th</type>
        <accidental>sharp</accidental>
        <staff>2</staff>
      </note>
      <note>
        <pitch>
          <step>D</step>
          <octave>4</octave>
        </pitch>
        <duration>2</duration>
        <voice>7</voice>
        <type>16th</type>
        <staff>2</staff>
      </note>
      <note>
        <pitch>
          <step>E</step>
          <octave>4</octave>
        </pitch>
        <duration>4</duration>
        <voice>7</voice>
        <type>eighth</type>
        <staff>2</staff>
      </note>
      <note>
        <pitch>
          <step>D</step>
          <alter>1</alter>
          <octave>4</octave>
        </pitch>
        <duration>16</duration>
        <voice>7</voice>
        <type>half</type>
        <accidental>sharp</accidental>
        <staff>2</staff>
      </note>
      <backup>
        <duration>32</duration>
      </backup>
      <note>
        <pitch>
          <step>A</step>
          <alter>1</alter>
          <octave>3</octave>
        </pitch>
        <duration>4</duration>
        <voice>8</voice>
        <type>eighth</type>
        <accidental>sharp</accidental>
        <staff>2</staff>
      </note>
      <note>
        <pitch>
          <step>B</step>
          <octave>3</octave>
        </pitch>
        <duration>4</duration>
        <voice>8</voice>
        <type>eighth</type>
        <staff>2</staff>
      </note>
      <note>
        <pitch>
          <step>F</step>
          <alter>1</alter>
          <octave>3</octave>
        </pitch>
        <duration>8</duration>
        <voice>8</voice>
        <type>quarter</type>
        <accidental>sharp</accidental>
        <staff>2</staff>
      </note>
      <note>
        <pitch>
          <step>B</step>
          <octave>2</octave>
        </pitch>
        <duration>16</duration>
        <voice>8</voice>
        <type>half</type>
        <staff>2</staff>
        <notations>
          <fermata />
        </notations>
      </note>
    </measure>
    <measure number="9" />
    <measure number="10" />
  </part>
</score-partwise>
